<?xml version="1.0" encoding="UTF-8"?>
<svg xmlns="http://www.w3.org/2000/svg"
     xmlns:xlink="http://www.w3.org/1999/xlink"
     xmlns:gadfly="http://www.gadflyjl.org/ns"
     version="1.2"
     width="152.4mm" height="101.6mm" viewBox="0 0 152.4 101.6"
     stroke="none"
     fill="#000000"
     stroke-width="0.3"
     font-size="3.88"
>
<defs>
  <marker id="arrow" markerWidth="15" markerHeight="7" refX="5" refY="3.5" orient="auto" markerUnits="strokeWidth">
    <path d="M0,0 L15,3.5 L0,7 z" stroke="context-stroke" fill="context-stroke"/>
  </marker>
</defs>
<g class="plotroot xscalable yscalable" id="img-21f2a3e0-1">
  <g font-size="3.88" font-family="'PT Sans','Helvetica Neue','Helvetica',sans-serif" fill="#564A55" stroke="#000000" stroke-opacity="0.000" id="img-21f2a3e0-2">
    <g transform="translate(80.94,89.99)">
      <g class="primitive">
        <text text-anchor="middle" dy="0.6em">x</text>
      </g>
    </g>
  </g>
  <g class="guide xlabels" font-size="2.82" font-family="'PT Sans Caption','Helvetica Neue','Helvetica',sans-serif" fill="#6C606B" id="img-21f2a3e0-3">
    <g transform="translate(16.48,83.32)">
      <g class="primitive">
        <text text-anchor="middle" dy="0.6em">16</text>
      </g>
    </g>
    <g transform="translate(42.26,83.32)">
      <g class="primitive">
        <text text-anchor="middle" dy="0.6em">18</text>
      </g>
    </g>
    <g transform="translate(68.05,83.32)">
      <g class="primitive">
        <text text-anchor="middle" dy="0.6em">20</text>
      </g>
    </g>
    <g transform="translate(93.83,83.32)">
      <g class="primitive">
        <text text-anchor="middle" dy="0.6em">22</text>
      </g>
    </g>
    <g transform="translate(119.62,83.32)">
      <g class="primitive">
        <text text-anchor="middle" dy="0.6em">24</text>
      </g>
    </g>
    <g transform="translate(145.4,83.32)">
      <g class="primitive">
        <text text-anchor="middle" dy="0.6em">26</text>
      </g>
    </g>
  </g>
  <g clip-path="url(#img-21f2a3e0-4)">
    <g id="img-21f2a3e0-5">
      <g pointer-events="visible" fill="#000000" fill-opacity="0.000" stroke="#000000" stroke-opacity="0.000" class="guide background" id="img-21f2a3e0-6">
        <g transform="translate(80.94,43.66)" id="img-21f2a3e0-7">
          <path d="M-66.46,-38.66 L 66.46 -38.66 66.46 38.66 -66.46 38.66 z" class="primitive"/>
        </g>
      </g>
      <g class="guide ygridlines xfixed" stroke-dasharray="0.5,0.5" stroke-width="0.2" stroke="#D0D0E0" id="img-21f2a3e0-8">
        <g transform="translate(80.94,80.32)" id="img-21f2a3e0-9">
          <path fill="none" d="M-66.46,0 L 66.46 0" class="primitive"/>
        </g>
        <g transform="translate(80.94,68.1)" id="img-21f2a3e0-10">
          <path fill="none" d="M-66.46,0 L 66.46 0" class="primitive"/>
        </g>
        <g transform="translate(80.94,55.88)" id="img-21f2a3e0-11">
          <path fill="none" d="M-66.46,0 L 66.46 0" class="primitive"/>
        </g>
        <g transform="translate(80.94,43.66)" id="img-21f2a3e0-12">
          <path fill="none" d="M-66.46,0 L 66.46 0" class="primitive"/>
        </g>
        <g transform="translate(80.94,31.44)" id="img-21f2a3e0-13">
          <path fill="none" d="M-66.46,0 L 66.46 0" class="primitive"/>
        </g>
        <g transform="translate(80.94,19.22)" id="img-21f2a3e0-14">
          <path fill="none" d="M-66.46,0 L 66.46 0" class="primitive"/>
        </g>
        <g transform="translate(80.94,7)" id="img-21f2a3e0-15">
          <path fill="none" d="M-66.46,0 L 66.46 0" class="primitive"/>
        </g>
      </g>
      <g class="guide xgridlines yfixed" stroke-dasharray="0.5,0.5" stroke-width="0.2" stroke="#D0D0E0" id="img-21f2a3e0-16">
        <g transform="translate(16.48,43.66)" id="img-21f2a3e0-17">
          <path fill="none" d="M0,-38.66 L 0 38.66" class="primitive"/>
        </g>
        <g transform="translate(42.26,43.66)" id="img-21f2a3e0-18">
          <path fill="none" d="M0,-38.66 L 0 38.66" class="primitive"/>
        </g>
        <g transform="translate(68.05,43.66)" id="img-21f2a3e0-19">
          <path fill="none" d="M0,-38.66 L 0 38.66" class="primitive"/>
        </g>
        <g transform="translate(93.83,43.66)" id="img-21f2a3e0-20">
          <path fill="none" d="M0,-38.66 L 0 38.66" class="primitive"/>
        </g>
        <g transform="translate(119.62,43.66)" id="img-21f2a3e0-21">
          <path fill="none" d="M0,-38.66 L 0 38.66" class="primitive"/>
        </g>
        <g transform="translate(145.4,43.66)" id="img-21f2a3e0-22">
          <path fill="none" d="M0,-38.66 L 0 38.66" class="primitive"/>
        </g>
      </g>
      <g class="plotpanel" id="img-21f2a3e0-23">
        <metadata>
          <boundingbox value="14.479166666666686mm 5.0mm 132.92083333333332mm 77.315mm"/>
          <unitbox value="15.844866035357615 6.163677282957103 10.31026792928477 -6.327354565914206"/>
        </metadata>
        <g stroke-width="0.3" fill="#000000" fill-opacity="0.000" class="geometry" id="img-21f2a3e0-24">
          <g class="color_LCHab{Float32}(70.0f0,60.0f0,240.0f0)" stroke-dasharray="none" stroke="#00BFFF" id="img-21f2a3e0-25">
            <g transform="translate(77.08,39.05)" id="img-21f2a3e0-26">
              <path fill="none" d="M-53.37,27.54 L -52.84 27.03 -52.3 26.51 -51.76 26 -51.23 25.49 -50.69 24.97 -50.16 24.97 -49.62 24.45 -49.08 24.44 -48.55 23.93 -48.01 23.92 -47.47 23.41 -46.94 23.4 -46.4 22.89 -45.86 22.88 -45.33 22.37 -44.79 22.36 -44.25 21.85 -43.72 21.84 -43.18 21.33 -42.65 20.82 -42.11 20.81 -41.57 20.3 -41.04 20.29 -40.5 19.78 -39.96 19.77 -39.43 19.26 -38.89 19.25 -38.35 18.74 -37.82 18.73 -37.28 18.22 -36.74 18.21 -36.21 17.7 -35.67 17.7 -35.14 17.18 -34.6 17.18 -34.06 16.66 -33.53 16.66 -32.99 16.14 -32.45 16.14 -31.92 15.63 -31.38 15.62 -30.84 15.11 -30.31 15.1 -29.77 14.59 -29.24 14.58 -28.7 14.07 -28.16 14.06 -27.63 13.55 -27.09 13.04 -26.55 13.03 -26.02 12.52 -25.48 12.52 -24.94 12 -24.41 12 -23.87 11.48 -23.33 11.48 -22.8 10.97 -22.26 10.96 -21.73 10.45 -21.19 10.44 -20.65 9.93 -20.12 9.93 -19.58 9.41 -19.04 9.41 -18.51 8.9 -17.97 8.89 -17.43 8.38 -16.9 8.37 -16.36 7.86 -15.82 7.86 -15.29 7.34 -14.75 7.34 -14.22 6.83 -13.68 6.82 -13.14 6.31 -12.61 6.3 -12.07 5.79 -11.53 5.79 -11 5.28 -10.46 5.27 -9.92 4.76 -9.39 4.75 -8.85 4.24 -8.31 4.24 -7.78 3.73 -7.24 3.21 -6.71 3.21 -6.17 2.7 -5.63 2.69 -5.1 2.18 -4.56 2.18 -4.02 1.66 -3.49 1.66 -2.95 1.15 -2.41 1.14 -1.88 0.63 -1.34 0.63 -0.8 0.11 -0.27 0.11 0.27 -0.4 0.8 -0.41 1.34 -0.92 1.88 -0.92 2.41 -1.43 2.95 -1.44 3.49 -1.95 4.02 -1.95 4.56 -2.46 5.1 -2.47 5.63 -2.98 6.17 -2.98 6.71 -3.5 7.24 -3.5 7.78 -4.01 8.31 -4.01 8.85 -4.53 9.39 -4.53 9.92 -5.04 10.46 -5.05 11 -5.56 11.53 -5.56 12.07 -6.07 12.61 -6.08 13.14 -6.59 13.68 -6.59 14.22 -7.1 14.75 -7.11 15.29 -7.62 15.82 -7.62 16.36 -8.13 16.9 -8.14 17.43 -8.65 17.97 -9.16 18.51 -9.16 19.04 -9.67 19.58 -9.68 20.12 -10.19 20.65 -10.19 21.19 -10.7 21.73 -10.71 22.26 -11.22 22.8 -11.22 23.33 -11.73 23.87 -11.73 24.41 -12.25 24.94 -12.25 25.48 -12.76 26.02 -12.76 26.55 -13.27 27.09 -13.28 27.63 -13.79 28.16 -13.79 28.7 -14.3 29.24 -14.31 29.77 -14.82 30.31 -14.82 30.84 -15.33 31.38 -15.33 31.92 -15.84 32.45 -15.85 32.99 -16.36 33.53 -16.36 34.06 -16.87 34.6 -16.88 35.14 -17.39 35.67 -17.39 36.21 -17.9 36.74 -17.9 37.28 -18.41 37.82 -18.42 38.35 -18.93 38.89 -18.93 39.43 -19.44 39.96 -19.44 40.5 -19.95 41.04 -19.96 41.57 -20.47 42.11 -20.47 42.65 -20.98 43.18 -20.98 43.72 -21.49 44.25 -21.5 44.79 -22.01 45.33 -22.01 45.86 -22.52 46.4 -22.52 46.94 -23.03 47.47 -23.03 48.01 -23.55 48.55 -24.06 49.08 -24.06 49.62 -24.57 50.16 -24.57 50.69 -25.08 51.23 -25.08 51.76 -25.59 52.3 -25.6 52.84 -26.11 53.37 -26.11" class="primitive"/>
            </g>
          </g>
        </g>
      </g>
    </g>
  </g>
  <g class="guide ylabels" font-size="2.82" font-family="'PT Sans Caption','Helvetica Neue','Helvetica',sans-serif" fill="#6C606B" id="img-21f2a3e0-27">
    <g transform="translate(13.48,80.32)" id="img-21f2a3e0-28">
      <g class="primitive">
        <text text-anchor="end" dy="0.35em">0</text>
      </g>
    </g>
    <g transform="translate(13.48,68.1)" id="img-21f2a3e0-29">
      <g class="primitive">
        <text text-anchor="end" dy="0.35em">1</text>
      </g>
    </g>
    <g transform="translate(13.48,55.88)" id="img-21f2a3e0-30">
      <g class="primitive">
        <text text-anchor="end" dy="0.35em">2</text>
      </g>
    </g>
    <g transform="translate(13.48,43.66)" id="img-21f2a3e0-31">
      <g class="primitive">
        <text text-anchor="end" dy="0.35em">3</text>
      </g>
    </g>
    <g transform="translate(13.48,31.44)" id="img-21f2a3e0-32">
      <g class="primitive">
        <text text-anchor="end" dy="0.35em">4</text>
      </g>
    </g>
    <g transform="translate(13.48,19.22)" id="img-21f2a3e0-33">
      <g class="primitive">
        <text text-anchor="end" dy="0.35em">5</text>
      </g>
    </g>
    <g transform="translate(13.48,7)" id="img-21f2a3e0-34">
      <g class="primitive">
        <text text-anchor="end" dy="0.35em">6</text>
      </g>
    </g>
  </g>
  <g font-size="3.88" font-family="'PT Sans','Helvetica Neue','Helvetica',sans-serif" fill="#564A55" stroke="#000000" stroke-opacity="0.000" id="img-21f2a3e0-35">
    <g transform="translate(8.81,43.66)" id="img-21f2a3e0-36">
      <g class="primitive">
        <text text-anchor="end" dy="0.35em">y</text>
      </g>
    </g>
  </g>
</g>
<defs>
  <clipPath id="img-21f2a3e0-4">
    <path d="M14.48,5 L 147.4 5 147.4 82.32 14.48 82.32" />
  </clipPath>
</defs>
</svg>
