<?xml version="1.0" encoding="UTF-8"?>
<svg xmlns="http://www.w3.org/2000/svg"
     xmlns:xlink="http://www.w3.org/1999/xlink"
     xmlns:gadfly="http://www.gadflyjl.org/ns"
     version="1.2"
     width="152.4mm" height="101.6mm" viewBox="0 0 152.4 101.6"
     stroke="none"
     fill="#000000"
     stroke-width="0.3"
     font-size="3.88"
>
<defs>
  <marker id="arrow" markerWidth="15" markerHeight="7" refX="5" refY="3.5" orient="auto" markerUnits="strokeWidth">
    <path d="M0,0 L15,3.5 L0,7 z" stroke="context-stroke" fill="context-stroke"/>
  </marker>
</defs>
<g class="plotroot xscalable yscalable" id="img-df00f20c-1">
  <g font-size="3.88" font-family="'PT Sans','Helvetica Neue','Helvetica',sans-serif" fill="#564A55" stroke="#000000" stroke-opacity="0.000" id="img-df00f20c-2">
    <g transform="translate(82.95,89.99)">
      <g class="primitive">
        <text text-anchor="middle" dy="0.6em">x</text>
      </g>
    </g>
  </g>
  <g class="guide xlabels" font-size="2.82" font-family="'PT Sans Caption','Helvetica Neue','Helvetica',sans-serif" fill="#6C606B" id="img-df00f20c-3">
    <g transform="translate(20.5,83.32)">
      <g class="primitive">
        <text text-anchor="middle" dy="0.6em">16</text>
      </g>
    </g>
    <g transform="translate(45.48,83.32)">
      <g class="primitive">
        <text text-anchor="middle" dy="0.6em">18</text>
      </g>
    </g>
    <g transform="translate(70.46,83.32)">
      <g class="primitive">
        <text text-anchor="middle" dy="0.6em">20</text>
      </g>
    </g>
    <g transform="translate(95.44,83.32)">
      <g class="primitive">
        <text text-anchor="middle" dy="0.6em">22</text>
      </g>
    </g>
    <g transform="translate(120.42,83.32)">
      <g class="primitive">
        <text text-anchor="middle" dy="0.6em">24</text>
      </g>
    </g>
    <g transform="translate(145.4,83.32)">
      <g class="primitive">
        <text text-anchor="middle" dy="0.6em">26</text>
      </g>
    </g>
  </g>
  <g clip-path="url(#img-df00f20c-4)">
    <g id="img-df00f20c-5">
      <g pointer-events="visible" fill="#000000" fill-opacity="0.000" stroke="#000000" stroke-opacity="0.000" class="guide background" id="img-df00f20c-6">
        <g transform="translate(82.95,43.66)" id="img-df00f20c-7">
          <path d="M-64.45,-38.66 L 64.45 -38.66 64.45 38.66 -64.45 38.66 z" class="primitive"/>
        </g>
      </g>
      <g class="guide ygridlines xfixed" stroke-dasharray="0.5,0.5" stroke-width="0.2" stroke="#D0D0E0" id="img-df00f20c-8">
        <g transform="translate(82.95,80.32)" id="img-df00f20c-9">
          <path fill="none" d="M-64.45,0 L 64.45 0" class="primitive"/>
        </g>
        <g transform="translate(82.95,55.88)" id="img-df00f20c-10">
          <path fill="none" d="M-64.45,0 L 64.45 0" class="primitive"/>
        </g>
        <g transform="translate(82.95,31.44)" id="img-df00f20c-11">
          <path fill="none" d="M-64.45,0 L 64.45 0" class="primitive"/>
        </g>
        <g transform="translate(82.95,7)" id="img-df00f20c-12">
          <path fill="none" d="M-64.45,0 L 64.45 0" class="primitive"/>
        </g>
      </g>
      <g class="guide xgridlines yfixed" stroke-dasharray="0.5,0.5" stroke-width="0.2" stroke="#D0D0E0" id="img-df00f20c-13">
        <g transform="translate(20.5,43.66)" id="img-df00f20c-14">
          <path fill="none" d="M0,-38.66 L 0 38.66" class="primitive"/>
        </g>
        <g transform="translate(45.48,43.66)" id="img-df00f20c-15">
          <path fill="none" d="M0,-38.66 L 0 38.66" class="primitive"/>
        </g>
        <g transform="translate(70.46,43.66)" id="img-df00f20c-16">
          <path fill="none" d="M0,-38.66 L 0 38.66" class="primitive"/>
        </g>
        <g transform="translate(95.44,43.66)" id="img-df00f20c-17">
          <path fill="none" d="M0,-38.66 L 0 38.66" class="primitive"/>
        </g>
        <g transform="translate(120.42,43.66)" id="img-df00f20c-18">
          <path fill="none" d="M0,-38.66 L 0 38.66" class="primitive"/>
        </g>
        <g transform="translate(145.4,43.66)" id="img-df00f20c-19">
          <path fill="none" d="M0,-38.66 L 0 38.66" class="primitive"/>
        </g>
      </g>
      <g class="plotpanel" id="img-df00f20c-20">
        <metadata>
          <boundingbox value="18.499166666666667mm 5.0mm 128.9008333333333mm 77.315mm"/>
          <unitbox value="15.83987296588627 0.1540919320739276 10.320254068227461 -0.15818386414785518"/>
        </metadata>
        <g stroke-width="0.3" fill="#000000" fill-opacity="0.000" class="geometry" id="img-df00f20c-21">
          <g class="color_LCHab{Float32}(70.0f0,60.0f0,240.0f0)" stroke-dasharray="none" stroke="#00BFFF" id="img-df00f20c-22">
            <g transform="translate(79.21,50.31)" id="img-df00f20c-23">
              <path fill="none" d="M-51.71,-31.4 L -51.19 -30.15 -50.67 -30.15 -50.15 -28.94 -49.63 -28.95 -49.11 -27.76 -48.59 -27.77 -48.07 -26.62 -47.55 -26.63 -47.03 -25.51 -46.51 -25.52 -45.99 -24.44 -45.47 -23.38 -44.95 -23.39 -44.43 -22.36 -43.91 -22.37 -43.39 -21.37 -42.87 -21.38 -42.36 -20.41 -41.84 -20.42 -41.32 -19.47 -40.8 -19.48 -40.28 -18.56 -39.76 -18.57 -39.24 -17.67 -38.72 -17.69 -38.2 -16.81 -37.68 -16.82 -37.16 -15.97 -36.64 -15.99 -36.12 -15.15 -35.6 -15.17 -35.08 -14.36 -34.56 -13.56 -34.04 -13.58 -33.52 -12.81 -33 -12.83 -32.48 -12.07 -31.96 -12.09 -31.44 -11.36 -30.92 -11.37 -30.4 -10.66 -29.88 -10.67 -29.36 -9.97 -28.84 -9.99 -28.32 -9.31 -27.8 -9.33 -27.28 -8.66 -26.76 -8.68 -26.24 -8.03 -25.72 -8.05 -25.21 -7.41 -24.69 -7.43 -24.17 -6.81 -23.65 -6.83 -23.13 -6.23 -22.61 -6.24 -22.09 -5.65 -21.57 -5.67 -21.05 -5.09 -20.53 -5.11 -20.01 -4.55 -19.49 -4.57 -18.97 -4.02 -18.45 -4.03 -17.93 -3.49 -17.41 -3.51 -16.89 -2.99 -16.37 -3 -15.85 -2.49 -15.33 -2.51 -14.81 -2 -14.29 -2.02 -13.77 -1.53 -13.25 -1.55 -12.73 -1.07 -12.21 -1.08 -11.69 -0.61 -11.17 -0.63 -10.65 -0.17 -10.13 -0.19 -9.61 0.26 -9.09 0.25 -8.57 0.23 -8.06 0.67 -7.54 0.65 -7.02 1.08 -6.5 1.07 -5.98 1.49 -5.46 1.47 -4.94 1.89 -4.42 1.87 -3.9 2.27 -3.38 2.26 -2.86 2.66 -2.34 2.64 -1.82 3.03 -1.3 3.01 -0.78 3.39 -0.26 3.37 0.26 3.75 0.78 3.73 1.3 4.1 1.82 4.08 2.34 4.44 2.86 4.42 3.38 4.78 3.9 4.76 4.42 5.1 4.94 5.09 5.46 5.43 5.98 5.41 6.5 5.74 7.02 5.72 7.54 6.05 8.06 6.03 8.57 6.35 9.09 6.34 9.61 6.65 10.13 6.63 10.65 6.62 11.17 6.92 11.69 6.91 12.21 7.21 12.73 7.19 13.25 7.49 13.77 7.47 14.29 7.76 14.81 7.75 15.33 8.03 15.85 8.02 16.37 8.3 16.89 8.28 17.41 8.56 17.93 8.54 18.45 8.81 18.97 8.8 19.49 9.06 20.01 9.05 20.53 9.31 21.05 9.29 21.57 9.55 22.09 9.53 22.61 9.78 23.13 9.77 23.65 10.02 24.17 10 24.69 9.98 25.21 10.23 25.72 10.21 26.24 10.45 26.76 10.44 27.28 10.67 27.8 10.66 28.32 10.89 28.84 10.87 29.36 11.1 29.88 11.08 30.4 11.31 30.92 11.29 31.44 11.51 31.96 11.5 32.48 11.71 33 11.7 33.52 11.91 34.04 11.9 34.56 12.11 35.08 12.09 35.6 12.3 36.12 12.28 36.64 12.49 37.16 12.47 37.68 12.67 38.2 12.66 38.72 12.64 39.24 12.84 39.76 12.82 40.28 13.02 40.8 13 41.32 13.19 41.84 13.18 42.36 13.37 42.87 13.35 43.39 13.54 43.91 13.52 44.43 13.7 44.95 13.69 45.47 13.87 45.99 13.85 46.51 14.03 47.03 14.02 47.55 14.19 48.07 14.18 48.59 14.35 49.11 14.33 49.63 14.5 50.15 14.49 50.67 14.65 51.19 14.64 51.71 14.63" class="primitive"/>
            </g>
          </g>
        </g>
      </g>
    </g>
  </g>
  <g class="guide ylabels" font-size="2.82" font-family="'PT Sans Caption','Helvetica Neue','Helvetica',sans-serif" fill="#6C606B" id="img-df00f20c-24">
    <g transform="translate(17.5,80.32)" id="img-df00f20c-25">
      <g class="primitive">
        <text text-anchor="end" dy="0.35em">0.00</text>
      </g>
    </g>
    <g transform="translate(17.5,55.88)" id="img-df00f20c-26">
      <g class="primitive">
        <text text-anchor="end" dy="0.35em">0.05</text>
      </g>
    </g>
    <g transform="translate(17.5,31.44)" id="img-df00f20c-27">
      <g class="primitive">
        <text text-anchor="end" dy="0.35em">0.10</text>
      </g>
    </g>
    <g transform="translate(17.5,7)" id="img-df00f20c-28">
      <g class="primitive">
        <text text-anchor="end" dy="0.35em">0.15</text>
      </g>
    </g>
  </g>
  <g font-size="3.88" font-family="'PT Sans','Helvetica Neue','Helvetica',sans-serif" fill="#564A55" stroke="#000000" stroke-opacity="0.000" id="img-df00f20c-29">
    <g transform="translate(8.81,43.66)" id="img-df00f20c-30">
      <g class="primitive">
        <text text-anchor="end" dy="0.35em">y</text>
      </g>
    </g>
  </g>
</g>
<defs>
  <clipPath id="img-df00f20c-4">
    <path d="M18.5,5 L 147.4 5 147.4 82.32 18.5 82.32" />
  </clipPath>
</defs>
</svg>
