<?xml version="1.0" encoding="UTF-8"?>
<svg xmlns="http://www.w3.org/2000/svg"
     xmlns:xlink="http://www.w3.org/1999/xlink"
     xmlns:gadfly="http://www.gadflyjl.org/ns"
     version="1.2"
     width="152.4mm" height="101.6mm" viewBox="0 0 152.4 101.6"
     stroke="none"
     fill="#000000"
     stroke-width="0.3"
     font-size="3.88"
>
<defs>
  <marker id="arrow" markerWidth="15" markerHeight="7" refX="5" refY="3.5" orient="auto" markerUnits="strokeWidth">
    <path d="M0,0 L15,3.5 L0,7 z" stroke="context-stroke" fill="context-stroke"/>
  </marker>
</defs>
<g class="plotroot xscalable yscalable" id="img-77d272ed-1">
  <g font-size="3.88" font-family="'PT Sans','Helvetica Neue','Helvetica',sans-serif" fill="#564A55" stroke="#000000" stroke-opacity="0.000" id="img-77d272ed-2">
    <g transform="translate(80.94,89.99)">
      <g class="primitive">
        <text text-anchor="middle" dy="0.6em">x</text>
      </g>
    </g>
  </g>
  <g class="guide xlabels" font-size="2.82" font-family="'PT Sans Caption','Helvetica Neue','Helvetica',sans-serif" fill="#6C606B" id="img-77d272ed-3">
    <g transform="translate(16.48,83.32)">
      <g class="primitive">
        <text text-anchor="middle" dy="0.6em">16</text>
      </g>
    </g>
    <g transform="translate(42.26,83.32)">
      <g class="primitive">
        <text text-anchor="middle" dy="0.6em">18</text>
      </g>
    </g>
    <g transform="translate(68.05,83.32)">
      <g class="primitive">
        <text text-anchor="middle" dy="0.6em">20</text>
      </g>
    </g>
    <g transform="translate(93.83,83.32)">
      <g class="primitive">
        <text text-anchor="middle" dy="0.6em">22</text>
      </g>
    </g>
    <g transform="translate(119.62,83.32)">
      <g class="primitive">
        <text text-anchor="middle" dy="0.6em">24</text>
      </g>
    </g>
    <g transform="translate(145.4,83.32)">
      <g class="primitive">
        <text text-anchor="middle" dy="0.6em">26</text>
      </g>
    </g>
  </g>
  <g clip-path="url(#img-77d272ed-4)">
    <g id="img-77d272ed-5">
      <g pointer-events="visible" fill="#000000" fill-opacity="0.000" stroke="#000000" stroke-opacity="0.000" class="guide background" id="img-77d272ed-6">
        <g transform="translate(80.94,43.66)" id="img-77d272ed-7">
          <path d="M-66.46,-38.66 L 66.46 -38.66 66.46 38.66 -66.46 38.66 z" class="primitive"/>
        </g>
      </g>
      <g class="guide ygridlines xfixed" stroke-dasharray="0.5,0.5" stroke-width="0.2" stroke="#D0D0E0" id="img-77d272ed-8">
        <g transform="translate(80.94,80.32)" id="img-77d272ed-9">
          <path fill="none" d="M-66.46,0 L 66.46 0" class="primitive"/>
        </g>
        <g transform="translate(80.94,68.1)" id="img-77d272ed-10">
          <path fill="none" d="M-66.46,0 L 66.46 0" class="primitive"/>
        </g>
        <g transform="translate(80.94,55.88)" id="img-77d272ed-11">
          <path fill="none" d="M-66.46,0 L 66.46 0" class="primitive"/>
        </g>
        <g transform="translate(80.94,43.66)" id="img-77d272ed-12">
          <path fill="none" d="M-66.46,0 L 66.46 0" class="primitive"/>
        </g>
        <g transform="translate(80.94,31.44)" id="img-77d272ed-13">
          <path fill="none" d="M-66.46,0 L 66.46 0" class="primitive"/>
        </g>
        <g transform="translate(80.94,19.22)" id="img-77d272ed-14">
          <path fill="none" d="M-66.46,0 L 66.46 0" class="primitive"/>
        </g>
        <g transform="translate(80.94,7)" id="img-77d272ed-15">
          <path fill="none" d="M-66.46,0 L 66.46 0" class="primitive"/>
        </g>
      </g>
      <g class="guide xgridlines yfixed" stroke-dasharray="0.5,0.5" stroke-width="0.2" stroke="#D0D0E0" id="img-77d272ed-16">
        <g transform="translate(16.48,43.66)" id="img-77d272ed-17">
          <path fill="none" d="M0,-38.66 L 0 38.66" class="primitive"/>
        </g>
        <g transform="translate(42.26,43.66)" id="img-77d272ed-18">
          <path fill="none" d="M0,-38.66 L 0 38.66" class="primitive"/>
        </g>
        <g transform="translate(68.05,43.66)" id="img-77d272ed-19">
          <path fill="none" d="M0,-38.66 L 0 38.66" class="primitive"/>
        </g>
        <g transform="translate(93.83,43.66)" id="img-77d272ed-20">
          <path fill="none" d="M0,-38.66 L 0 38.66" class="primitive"/>
        </g>
        <g transform="translate(119.62,43.66)" id="img-77d272ed-21">
          <path fill="none" d="M0,-38.66 L 0 38.66" class="primitive"/>
        </g>
        <g transform="translate(145.4,43.66)" id="img-77d272ed-22">
          <path fill="none" d="M0,-38.66 L 0 38.66" class="primitive"/>
        </g>
      </g>
      <g class="plotpanel" id="img-77d272ed-23">
        <metadata>
          <boundingbox value="14.479166666666686mm 5.0mm 132.92083333333332mm 77.315mm"/>
          <unitbox value="15.844866035357615 9.163677282957103 10.31026792928477 -6.327354565914206"/>
        </metadata>
        <g stroke-width="0.3" fill="#000000" fill-opacity="0.000" class="geometry" id="img-77d272ed-24">
          <g class="color_LCHab{Float32}(70.0f0,60.0f0,240.0f0)" stroke-dasharray="none" stroke="#00BFFF" id="img-77d272ed-25">
            <g transform="translate(77.08,42.39)" id="img-77d272ed-26">
              <path fill="none" d="M-53.37,29.41 L -52.84 28.86 -52.3 28.82 -51.76 28.26 -51.23 28.22 -50.69 27.67 -50.16 27.62 -49.62 27.07 -49.08 27.03 -48.55 26.48 -48.01 26.44 -47.47 25.88 -46.94 25.33 -46.4 25.29 -45.86 24.74 -45.33 24.7 -44.79 24.14 -44.25 24.1 -43.72 23.55 -43.18 23.51 -42.65 22.96 -42.11 22.92 -41.57 22.37 -41.04 22.32 -40.5 21.77 -39.96 21.73 -39.43 21.18 -38.89 21.14 -38.35 20.59 -37.82 20.55 -37.28 20 -36.74 19.96 -36.21 19.41 -35.67 18.86 -35.14 18.81 -34.6 18.27 -34.06 18.22 -33.53 17.67 -32.99 17.63 -32.45 17.08 -31.92 17.04 -31.38 16.49 -30.84 16.45 -30.31 15.91 -29.77 15.86 -29.24 15.32 -28.7 15.28 -28.16 14.73 -27.63 14.69 -27.09 14.14 -26.55 14.1 -26.02 13.55 -25.48 13.51 -24.94 12.96 -24.41 12.92 -23.87 12.37 -23.33 12.33 -22.8 11.79 -22.26 11.75 -21.73 11.2 -21.19 11.16 -20.65 10.61 -20.12 10.57 -19.58 10.02 -19.04 9.99 -18.51 9.44 -17.97 9.4 -17.43 8.85 -16.9 8.81 -16.36 8.27 -15.82 8.23 -15.29 7.68 -14.75 7.64 -14.22 7.09 -13.68 7.06 -13.14 6.51 -12.61 6.47 -12.07 5.92 -11.53 5.89 -11 5.34 -10.46 5.3 -9.92 4.76 -9.39 4.72 -8.85 4.68 -8.31 4.13 -7.78 4.1 -7.24 3.55 -6.71 3.51 -6.17 2.97 -5.63 2.93 -5.1 2.38 -4.56 2.34 -4.02 1.8 -3.49 1.76 -2.95 1.22 -2.41 1.18 -1.88 0.63 -1.34 0.6 -0.8 0.05 -0.27 0.01 0.27 -0.53 0.8 -0.57 1.34 -1.11 1.88 -1.15 2.41 -1.69 2.95 -1.73 3.49 -2.28 4.02 -2.31 4.56 -2.86 5.1 -2.89 5.63 -3.44 6.17 -3.47 6.71 -4.02 7.24 -4.05 7.78 -4.6 8.31 -4.63 8.85 -5.18 9.39 -5.21 9.92 -5.76 10.46 -5.79 11 -5.83 11.53 -6.37 12.07 -6.41 12.61 -6.95 13.14 -6.99 13.68 -7.53 14.22 -7.57 14.75 -8.11 15.29 -8.15 15.82 -8.69 16.36 -8.73 16.9 -9.27 17.43 -9.3 17.97 -9.85 18.51 -9.88 19.04 -10.43 19.58 -10.46 20.12 -11 20.65 -11.04 21.19 -11.58 21.73 -11.62 22.26 -12.16 22.8 -12.19 23.33 -12.74 23.87 -12.77 24.41 -13.31 24.94 -13.35 25.48 -13.38 26.02 -13.92 26.55 -13.96 27.09 -14.5 27.63 -14.54 28.16 -15.08 28.7 -15.11 29.24 -15.65 29.77 -15.69 30.31 -16.23 30.84 -16.26 31.38 -16.81 31.92 -16.84 32.45 -17.38 32.99 -17.41 33.53 -17.96 34.06 -17.99 34.6 -18.53 35.14 -18.56 35.67 -19.11 36.21 -19.14 36.74 -19.68 37.28 -19.71 37.82 -20.26 38.35 -20.29 38.89 -20.83 39.43 -20.86 39.96 -20.9 40.5 -21.44 41.04 -21.47 41.57 -22.01 42.11 -22.04 42.65 -22.58 43.18 -22.62 43.72 -23.16 44.25 -23.19 44.79 -23.73 45.33 -23.76 45.86 -24.3 46.4 -24.34 46.94 -24.88 47.47 -24.91 48.01 -25.45 48.55 -25.48 49.08 -26.02 49.62 -26.05 50.16 -26.6 50.69 -26.63 51.23 -27.17 51.76 -27.2 52.3 -27.74 52.84 -27.77 53.37 -27.8" class="primitive"/>
            </g>
          </g>
        </g>
      </g>
    </g>
  </g>
  <g class="guide ylabels" font-size="2.82" font-family="'PT Sans Caption','Helvetica Neue','Helvetica',sans-serif" fill="#6C606B" id="img-77d272ed-27">
    <g transform="translate(13.48,80.32)" id="img-77d272ed-28">
      <g class="primitive">
        <text text-anchor="end" dy="0.35em">3</text>
      </g>
    </g>
    <g transform="translate(13.48,68.1)" id="img-77d272ed-29">
      <g class="primitive">
        <text text-anchor="end" dy="0.35em">4</text>
      </g>
    </g>
    <g transform="translate(13.48,55.88)" id="img-77d272ed-30">
      <g class="primitive">
        <text text-anchor="end" dy="0.35em">5</text>
      </g>
    </g>
    <g transform="translate(13.48,43.66)" id="img-77d272ed-31">
      <g class="primitive">
        <text text-anchor="end" dy="0.35em">6</text>
      </g>
    </g>
    <g transform="translate(13.48,31.44)" id="img-77d272ed-32">
      <g class="primitive">
        <text text-anchor="end" dy="0.35em">7</text>
      </g>
    </g>
    <g transform="translate(13.48,19.22)" id="img-77d272ed-33">
      <g class="primitive">
        <text text-anchor="end" dy="0.35em">8</text>
      </g>
    </g>
    <g transform="translate(13.48,7)" id="img-77d272ed-34">
      <g class="primitive">
        <text text-anchor="end" dy="0.35em">9</text>
      </g>
    </g>
  </g>
  <g font-size="3.88" font-family="'PT Sans','Helvetica Neue','Helvetica',sans-serif" fill="#564A55" stroke="#000000" stroke-opacity="0.000" id="img-77d272ed-35">
    <g transform="translate(8.81,43.66)" id="img-77d272ed-36">
      <g class="primitive">
        <text text-anchor="end" dy="0.35em">y</text>
      </g>
    </g>
  </g>
</g>
<defs>
  <clipPath id="img-77d272ed-4">
    <path d="M14.48,5 L 147.4 5 147.4 82.32 14.48 82.32" />
  </clipPath>
</defs>
</svg>
