<?xml version="1.0" encoding="UTF-8"?>
<svg xmlns="http://www.w3.org/2000/svg"
     xmlns:xlink="http://www.w3.org/1999/xlink"
     xmlns:gadfly="http://www.gadflyjl.org/ns"
     version="1.2"
     width="152.4mm" height="101.6mm" viewBox="0 0 152.4 101.6"
     stroke="none"
     fill="#000000"
     stroke-width="0.3"
     font-size="3.88"
>
<defs>
  <marker id="arrow" markerWidth="15" markerHeight="7" refX="5" refY="3.5" orient="auto" markerUnits="strokeWidth">
    <path d="M0,0 L15,3.5 L0,7 z" stroke="context-stroke" fill="context-stroke"/>
  </marker>
</defs>
<g class="plotroot xscalable yscalable" id="img-60b33819-1">
  <g font-size="3.88" font-family="'PT Sans','Helvetica Neue','Helvetica',sans-serif" fill="#564A55" stroke="#000000" stroke-opacity="0.000" id="img-60b33819-2">
    <g transform="translate(82.11,89.99)">
      <g class="primitive">
        <text text-anchor="middle" dy="0.6em">x</text>
      </g>
    </g>
  </g>
  <g class="guide xlabels" font-size="2.82" font-family="'PT Sans Caption','Helvetica Neue','Helvetica',sans-serif" fill="#6C606B" id="img-60b33819-3">
    <g transform="translate(18.83,83.32)">
      <g class="primitive">
        <text text-anchor="middle" dy="0.6em">16</text>
      </g>
    </g>
    <g transform="translate(44.14,83.32)">
      <g class="primitive">
        <text text-anchor="middle" dy="0.6em">18</text>
      </g>
    </g>
    <g transform="translate(69.46,83.32)">
      <g class="primitive">
        <text text-anchor="middle" dy="0.6em">20</text>
      </g>
    </g>
    <g transform="translate(94.77,83.32)">
      <g class="primitive">
        <text text-anchor="middle" dy="0.6em">22</text>
      </g>
    </g>
    <g transform="translate(120.09,83.32)">
      <g class="primitive">
        <text text-anchor="middle" dy="0.6em">24</text>
      </g>
    </g>
    <g transform="translate(145.4,83.32)">
      <g class="primitive">
        <text text-anchor="middle" dy="0.6em">26</text>
      </g>
    </g>
  </g>
  <g clip-path="url(#img-60b33819-4)">
    <g id="img-60b33819-5">
      <g pointer-events="visible" fill="#000000" fill-opacity="0.000" stroke="#000000" stroke-opacity="0.000" class="guide background" id="img-60b33819-6">
        <g transform="translate(82.11,43.66)" id="img-60b33819-7">
          <path d="M-65.29,-38.66 L 65.29 -38.66 65.29 38.66 -65.29 38.66 z" class="primitive"/>
        </g>
      </g>
      <g class="guide ygridlines xfixed" stroke-dasharray="0.5,0.5" stroke-width="0.2" stroke="#D0D0E0" id="img-60b33819-8">
        <g transform="translate(82.11,80.31)" id="img-60b33819-9">
          <path fill="none" d="M-65.29,0 L 65.29 0" class="primitive"/>
        </g>
        <g transform="translate(82.11,65.65)" id="img-60b33819-10">
          <path fill="none" d="M-65.29,0 L 65.29 0" class="primitive"/>
        </g>
        <g transform="translate(82.11,50.99)" id="img-60b33819-11">
          <path fill="none" d="M-65.29,0 L 65.29 0" class="primitive"/>
        </g>
        <g transform="translate(82.11,36.33)" id="img-60b33819-12">
          <path fill="none" d="M-65.29,0 L 65.29 0" class="primitive"/>
        </g>
        <g transform="translate(82.11,21.66)" id="img-60b33819-13">
          <path fill="none" d="M-65.29,0 L 65.29 0" class="primitive"/>
        </g>
        <g transform="translate(82.11,7)" id="img-60b33819-14">
          <path fill="none" d="M-65.29,0 L 65.29 0" class="primitive"/>
        </g>
      </g>
      <g class="guide xgridlines yfixed" stroke-dasharray="0.5,0.5" stroke-width="0.2" stroke="#D0D0E0" id="img-60b33819-15">
        <g transform="translate(18.83,43.66)" id="img-60b33819-16">
          <path fill="none" d="M0,-38.66 L 0 38.66" class="primitive"/>
        </g>
        <g transform="translate(44.14,43.66)" id="img-60b33819-17">
          <path fill="none" d="M0,-38.66 L 0 38.66" class="primitive"/>
        </g>
        <g transform="translate(69.46,43.66)" id="img-60b33819-18">
          <path fill="none" d="M0,-38.66 L 0 38.66" class="primitive"/>
        </g>
        <g transform="translate(94.77,43.66)" id="img-60b33819-19">
          <path fill="none" d="M0,-38.66 L 0 38.66" class="primitive"/>
        </g>
        <g transform="translate(120.09,43.66)" id="img-60b33819-20">
          <path fill="none" d="M0,-38.66 L 0 38.66" class="primitive"/>
        </g>
        <g transform="translate(145.4,43.66)" id="img-60b33819-21">
          <path fill="none" d="M0,-38.66 L 0 38.66" class="primitive"/>
        </g>
      </g>
      <g class="plotpanel" id="img-60b33819-22">
        <metadata>
          <boundingbox value="16.82583333333335mm 5.0mm 130.57416666666666mm 77.315mm"/>
          <unitbox value="15.841989874184437 4.568198867898793 10.316020251631127 -2.636397735797586"/>
        </metadata>
        <g stroke-width="0.3" fill="#000000" fill-opacity="0.000" class="geometry" id="img-60b33819-23">
          <g class="color_LCHab{Float32}(70.0f0,60.0f0,240.0f0)" stroke-dasharray="none" stroke="#00BFFF" id="img-60b33819-24">
            <g transform="translate(78.32,39.32)" id="img-60b33819-25">
              <path fill="none" d="M-52.4,31.8 L -51.88 31.31 -51.35 30.83 -50.82 30.35 -50.3 29.88 -49.77 29.41 -49.24 28.95 -48.72 28.49 -48.19 28.04 -47.66 27.59 -47.14 27.14 -46.61 26.7 -46.08 26.26 -45.56 25.82 -45.03 25.39 -44.5 24.96 -43.98 24.54 -43.45 24.12 -42.92 23.7 -42.4 23.29 -41.87 22.88 -41.34 22.48 -40.82 22.07 -40.29 21.67 -39.76 21.28 -39.24 20.88 -38.71 20.49 -38.18 20.11 -37.66 19.72 -37.13 19.34 -36.6 18.96 -36.08 18.59 -35.55 18.21 -35.02 17.84 -34.5 17.47 -33.97 17.11 -33.44 16.75 -32.92 16.39 -32.39 16.03 -31.86 15.68 -31.34 15.32 -30.81 14.97 -30.28 14.63 -29.76 14.28 -29.23 13.94 -28.7 13.6 -28.18 13.26 -27.65 12.93 -27.12 12.59 -26.6 12.26 -26.07 11.93 -25.54 11.61 -25.02 11.28 -24.49 10.96 -23.96 10.64 -23.44 10.32 -22.91 10 -22.38 9.69 -21.86 9.37 -21.33 9.06 -20.8 8.75 -20.28 8.45 -19.75 8.14 -19.22 7.84 -18.7 7.54 -18.17 7.24 -17.64 6.94 -17.12 6.64 -16.59 6.35 -16.06 6.05 -15.54 5.76 -15.01 5.47 -14.48 5.18 -13.96 4.9 -13.43 4.61 -12.9 4.33 -12.38 4.05 -11.85 3.77 -11.32 3.49 -10.8 3.21 -10.27 2.93 -9.74 2.66 -9.22 2.39 -8.69 2.12 -8.16 1.84 -7.64 1.58 -7.11 1.31 -6.58 1.04 -6.06 0.78 -5.53 0.52 -5 0.25 -4.48 -0.01 -3.95 -0.27 -3.42 -0.52 -2.9 -0.78 -2.37 -1.04 -1.84 -1.29 -1.32 -1.54 -0.79 -1.79 -0.26 -2.05 0.26 -2.29 0.79 -2.54 1.32 -2.79 1.84 -3.03 2.37 -3.28 2.9 -3.52 3.42 -3.77 3.95 -4.01 4.48 -4.25 5 -4.49 5.53 -4.72 6.06 -4.96 6.58 -5.2 7.11 -5.43 7.64 -5.66 8.16 -5.9 8.69 -6.13 9.22 -6.36 9.74 -6.59 10.27 -6.82 10.8 -7.04 11.32 -7.27 11.85 -7.5 12.38 -7.72 12.9 -7.94 13.43 -8.17 13.96 -8.39 14.48 -8.61 15.01 -8.83 15.54 -9.05 16.06 -9.27 16.59 -9.48 17.12 -9.7 17.64 -9.91 18.17 -10.13 18.7 -10.34 19.22 -10.55 19.75 -10.77 20.28 -10.98 20.8 -11.19 21.33 -11.4 21.86 -11.6 22.38 -11.81 22.91 -12.02 23.44 -12.23 23.96 -12.43 24.49 -12.64 25.02 -12.84 25.54 -13.04 26.07 -13.24 26.6 -13.44 27.12 -13.65 27.65 -13.85 28.18 -14.04 28.7 -14.24 29.23 -14.44 29.76 -14.64 30.28 -14.83 30.81 -15.03 31.34 -15.22 31.86 -15.42 32.39 -15.61 32.92 -15.8 33.44 -15.99 33.97 -16.18 34.5 -16.38 35.02 -16.56 35.55 -16.75 36.08 -16.94 36.6 -17.13 37.13 -17.32 37.66 -17.5 38.18 -17.69 38.71 -17.87 39.24 -18.06 39.76 -18.24 40.29 -18.43 40.82 -18.61 41.34 -18.79 41.87 -18.97 42.4 -19.15 42.92 -19.33 43.45 -19.51 43.98 -19.69 44.5 -19.87 45.03 -20.05 45.56 -20.22 46.08 -20.4 46.61 -20.58 47.14 -20.75 47.66 -20.93 48.19 -21.1 48.72 -21.27 49.24 -21.45 49.77 -21.62 50.3 -21.79 50.82 -21.96 51.35 -22.13 51.88 -22.3 52.4 -22.47" class="primitive"/>
            </g>
          </g>
        </g>
      </g>
    </g>
  </g>
  <g class="guide ylabels" font-size="2.82" font-family="'PT Sans Caption','Helvetica Neue','Helvetica',sans-serif" fill="#6C606B" id="img-60b33819-26">
    <g transform="translate(15.83,80.31)" id="img-60b33819-27">
      <g class="primitive">
        <text text-anchor="end" dy="0.35em">2.0</text>
      </g>
    </g>
    <g transform="translate(15.83,65.65)" id="img-60b33819-28">
      <g class="primitive">
        <text text-anchor="end" dy="0.35em">2.5</text>
      </g>
    </g>
    <g transform="translate(15.83,50.99)" id="img-60b33819-29">
      <g class="primitive">
        <text text-anchor="end" dy="0.35em">3.0</text>
      </g>
    </g>
    <g transform="translate(15.83,36.33)" id="img-60b33819-30">
      <g class="primitive">
        <text text-anchor="end" dy="0.35em">3.5</text>
      </g>
    </g>
    <g transform="translate(15.83,21.66)" id="img-60b33819-31">
      <g class="primitive">
        <text text-anchor="end" dy="0.35em">4.0</text>
      </g>
    </g>
    <g transform="translate(15.83,7)" id="img-60b33819-32">
      <g class="primitive">
        <text text-anchor="end" dy="0.35em">4.5</text>
      </g>
    </g>
  </g>
  <g font-size="3.88" font-family="'PT Sans','Helvetica Neue','Helvetica',sans-serif" fill="#564A55" stroke="#000000" stroke-opacity="0.000" id="img-60b33819-33">
    <g transform="translate(8.81,43.66)" id="img-60b33819-34">
      <g class="primitive">
        <text text-anchor="end" dy="0.35em">y</text>
      </g>
    </g>
  </g>
</g>
<defs>
  <clipPath id="img-60b33819-4">
    <path d="M16.83,5 L 147.4 5 147.4 82.32 16.83 82.32" />
  </clipPath>
</defs>
</svg>
