<?xml version="1.0" encoding="UTF-8"?>
<svg xmlns="http://www.w3.org/2000/svg"
     xmlns:xlink="http://www.w3.org/1999/xlink"
     xmlns:gadfly="http://www.gadflyjl.org/ns"
     version="1.2"
     width="152.4mm" height="101.6mm" viewBox="0 0 152.4 101.6"
     stroke="none"
     fill="#000000"
     stroke-width="0.3"
     font-size="3.88"
>
<defs>
  <marker id="arrow" markerWidth="15" markerHeight="7" refX="5" refY="3.5" orient="auto" markerUnits="strokeWidth">
    <path d="M0,0 L15,3.5 L0,7 z" stroke="context-stroke" fill="context-stroke"/>
  </marker>
</defs>
<g class="plotroot xscalable yscalable" id="img-233f8554-1">
  <g font-size="3.88" font-family="'PT Sans','Helvetica Neue','Helvetica',sans-serif" fill="#564A55" stroke="#000000" stroke-opacity="0.000" id="img-233f8554-2">
    <g transform="translate(82.11,89.99)">
      <g class="primitive">
        <text text-anchor="middle" dy="0.6em">x</text>
      </g>
    </g>
  </g>
  <g class="guide xlabels" font-size="2.82" font-family="'PT Sans Caption','Helvetica Neue','Helvetica',sans-serif" fill="#6C606B" id="img-233f8554-3">
    <g transform="translate(18.83,83.32)">
      <g class="primitive">
        <text text-anchor="middle" dy="0.6em">16</text>
      </g>
    </g>
    <g transform="translate(44.14,83.32)">
      <g class="primitive">
        <text text-anchor="middle" dy="0.6em">18</text>
      </g>
    </g>
    <g transform="translate(69.46,83.32)">
      <g class="primitive">
        <text text-anchor="middle" dy="0.6em">20</text>
      </g>
    </g>
    <g transform="translate(94.77,83.32)">
      <g class="primitive">
        <text text-anchor="middle" dy="0.6em">22</text>
      </g>
    </g>
    <g transform="translate(120.09,83.32)">
      <g class="primitive">
        <text text-anchor="middle" dy="0.6em">24</text>
      </g>
    </g>
    <g transform="translate(145.4,83.32)">
      <g class="primitive">
        <text text-anchor="middle" dy="0.6em">26</text>
      </g>
    </g>
  </g>
  <g clip-path="url(#img-233f8554-4)">
    <g id="img-233f8554-5">
      <g pointer-events="visible" fill="#000000" fill-opacity="0.000" stroke="#000000" stroke-opacity="0.000" class="guide background" id="img-233f8554-6">
        <g transform="translate(82.11,43.66)" id="img-233f8554-7">
          <path d="M-65.29,-38.66 L 65.29 -38.66 65.29 38.66 -65.29 38.66 z" class="primitive"/>
        </g>
      </g>
      <g class="guide ygridlines xfixed" stroke-dasharray="0.5,0.5" stroke-width="0.2" stroke="#D0D0E0" id="img-233f8554-8">
        <g transform="translate(82.11,80.32)" id="img-233f8554-9">
          <path fill="none" d="M-65.29,0 L 65.29 0" class="primitive"/>
        </g>
        <g transform="translate(82.11,55.88)" id="img-233f8554-10">
          <path fill="none" d="M-65.29,0 L 65.29 0" class="primitive"/>
        </g>
        <g transform="translate(82.11,31.44)" id="img-233f8554-11">
          <path fill="none" d="M-65.29,0 L 65.29 0" class="primitive"/>
        </g>
        <g transform="translate(82.11,7)" id="img-233f8554-12">
          <path fill="none" d="M-65.29,0 L 65.29 0" class="primitive"/>
        </g>
      </g>
      <g class="guide xgridlines yfixed" stroke-dasharray="0.5,0.5" stroke-width="0.2" stroke="#D0D0E0" id="img-233f8554-13">
        <g transform="translate(18.83,43.66)" id="img-233f8554-14">
          <path fill="none" d="M0,-38.66 L 0 38.66" class="primitive"/>
        </g>
        <g transform="translate(44.14,43.66)" id="img-233f8554-15">
          <path fill="none" d="M0,-38.66 L 0 38.66" class="primitive"/>
        </g>
        <g transform="translate(69.46,43.66)" id="img-233f8554-16">
          <path fill="none" d="M0,-38.66 L 0 38.66" class="primitive"/>
        </g>
        <g transform="translate(94.77,43.66)" id="img-233f8554-17">
          <path fill="none" d="M0,-38.66 L 0 38.66" class="primitive"/>
        </g>
        <g transform="translate(120.09,43.66)" id="img-233f8554-18">
          <path fill="none" d="M0,-38.66 L 0 38.66" class="primitive"/>
        </g>
        <g transform="translate(145.4,43.66)" id="img-233f8554-19">
          <path fill="none" d="M0,-38.66 L 0 38.66" class="primitive"/>
        </g>
      </g>
      <g class="plotpanel" id="img-233f8554-20">
        <metadata>
          <boundingbox value="16.82583333333335mm 5.0mm 130.57416666666666mm 77.315mm"/>
          <unitbox value="15.841989874184437 0.3081838641478552 10.316020251631127 -0.31636772829571036"/>
        </metadata>
        <g stroke-width="0.3" fill="#000000" fill-opacity="0.000" class="geometry" id="img-233f8554-21">
          <g class="color_LCHab{Float32}(70.0f0,60.0f0,240.0f0)" stroke-dasharray="none" stroke="#00BFFF" id="img-233f8554-22">
            <g transform="translate(78.32,69.53)" id="img-233f8554-23">
              <path fill="none" d="M-52.4,-53.43 L -51.88 -50.88 -51.35 -48.45 -50.82 -46.13 -50.3 -43.92 -49.77 -41.81 -49.24 -39.79 -48.72 -37.87 -48.19 -36.04 -47.66 -34.29 -47.14 -32.63 -46.61 -31.03 -46.08 -29.51 -45.56 -28.06 -45.03 -26.68 -44.5 -25.35 -43.98 -24.09 -43.45 -22.88 -42.92 -21.72 -42.4 -20.62 -41.87 -19.56 -41.34 -18.55 -40.82 -17.58 -40.29 -16.66 -39.76 -15.77 -39.24 -14.92 -38.71 -14.11 -38.18 -13.33 -37.66 -12.58 -37.13 -11.86 -36.6 -11.17 -36.08 -10.51 -35.55 -9.88 -35.02 -9.27 -34.5 -8.68 -33.97 -8.12 -33.44 -7.58 -32.92 -7.06 -32.39 -6.56 -31.86 -6.08 -31.34 -5.62 -30.81 -5.17 -30.28 -4.75 -29.76 -4.33 -29.23 -3.93 -28.7 -3.55 -28.18 -3.18 -27.65 -2.82 -27.12 -2.48 -26.6 -2.15 -26.07 -1.83 -25.54 -1.52 -25.02 -1.22 -24.49 -0.93 -23.96 -0.65 -23.44 -0.38 -22.91 -0.12 -22.38 0.14 -21.86 0.38 -21.33 0.62 -20.8 0.85 -20.28 1.07 -19.75 1.28 -19.22 1.49 -18.7 1.69 -18.17 1.89 -17.64 2.08 -17.12 2.26 -16.59 2.44 -16.06 2.61 -15.54 2.78 -15.01 2.94 -14.48 3.1 -13.96 3.26 -13.43 3.41 -12.9 3.55 -12.38 3.69 -11.85 3.83 -11.32 3.96 -10.8 4.09 -10.27 4.22 -9.74 4.34 -9.22 4.46 -8.69 4.58 -8.16 4.69 -7.64 4.8 -7.11 4.91 -6.58 5.01 -6.06 5.12 -5.53 5.21 -5 5.31 -4.48 5.41 -3.95 5.5 -3.42 5.59 -2.9 5.68 -2.37 5.76 -1.84 5.84 -1.32 5.93 -0.79 6 -0.26 6.08 0.26 6.16 0.79 6.23 1.32 6.3 1.84 6.37 2.37 6.44 2.9 6.51 3.42 6.58 3.95 6.64 4.48 6.7 5 6.77 5.53 6.83 6.06 6.88 6.58 6.94 7.11 7 7.64 7.05 8.16 7.11 8.69 7.16 9.22 7.21 9.74 7.26 10.27 7.31 10.8 7.36 11.32 7.41 11.85 7.45 12.38 7.5 12.9 7.54 13.43 7.59 13.96 7.63 14.48 7.67 15.01 7.71 15.54 7.75 16.06 7.79 16.59 7.83 17.12 7.87 17.64 7.91 18.17 7.95 18.7 7.98 19.22 8.02 19.75 8.05 20.28 8.09 20.8 8.12 21.33 8.15 21.86 8.18 22.38 8.22 22.91 8.25 23.44 8.28 23.96 8.31 24.49 8.34 25.02 8.36 25.54 8.39 26.07 8.42 26.6 8.45 27.12 8.48 27.65 8.5 28.18 8.53 28.7 8.55 29.23 8.58 29.76 8.6 30.28 8.63 30.81 8.65 31.34 8.67 31.86 8.7 32.39 8.72 32.92 8.74 33.44 8.76 33.97 8.79 34.5 8.81 35.02 8.83 35.55 8.85 36.08 8.87 36.6 8.89 37.13 8.91 37.66 8.93 38.18 8.95 38.71 8.97 39.24 8.98 39.76 9 40.29 9.02 40.82 9.04 41.34 9.06 41.87 9.07 42.4 9.09 42.92 9.11 43.45 9.12 43.98 9.14 44.5 9.15 45.03 9.17 45.56 9.19 46.08 9.2 46.61 9.22 47.14 9.23 47.66 9.24 48.19 9.26 48.72 9.27 49.24 9.29 49.77 9.3 50.3 9.31 50.82 9.33 51.35 9.34 51.88 9.35 52.4 9.37" class="primitive"/>
            </g>
          </g>
        </g>
      </g>
    </g>
  </g>
  <g class="guide ylabels" font-size="2.82" font-family="'PT Sans Caption','Helvetica Neue','Helvetica',sans-serif" fill="#6C606B" id="img-233f8554-24">
    <g transform="translate(15.83,80.32)" id="img-233f8554-25">
      <g class="primitive">
        <text text-anchor="end" dy="0.35em">0.0</text>
      </g>
    </g>
    <g transform="translate(15.83,55.88)" id="img-233f8554-26">
      <g class="primitive">
        <text text-anchor="end" dy="0.35em">0.1</text>
      </g>
    </g>
    <g transform="translate(15.83,31.44)" id="img-233f8554-27">
      <g class="primitive">
        <text text-anchor="end" dy="0.35em">0.2</text>
      </g>
    </g>
    <g transform="translate(15.83,7)" id="img-233f8554-28">
      <g class="primitive">
        <text text-anchor="end" dy="0.35em">0.3</text>
      </g>
    </g>
  </g>
  <g font-size="3.88" font-family="'PT Sans','Helvetica Neue','Helvetica',sans-serif" fill="#564A55" stroke="#000000" stroke-opacity="0.000" id="img-233f8554-29">
    <g transform="translate(8.81,43.66)" id="img-233f8554-30">
      <g class="primitive">
        <text text-anchor="end" dy="0.35em">y</text>
      </g>
    </g>
  </g>
</g>
<defs>
  <clipPath id="img-233f8554-4">
    <path d="M16.83,5 L 147.4 5 147.4 82.32 16.83 82.32" />
  </clipPath>
</defs>
</svg>
