<?xml version="1.0" encoding="UTF-8"?>
<svg xmlns="http://www.w3.org/2000/svg"
     xmlns:xlink="http://www.w3.org/1999/xlink"
     xmlns:gadfly="http://www.gadflyjl.org/ns"
     version="1.2"
     width="152.4mm" height="101.6mm" viewBox="0 0 152.4 101.6"
     stroke="none"
     fill="#000000"
     stroke-width="0.3"
     font-size="3.88"
>
<defs>
  <marker id="arrow" markerWidth="15" markerHeight="7" refX="5" refY="3.5" orient="auto" markerUnits="strokeWidth">
    <path d="M0,0 L15,3.5 L0,7 z" stroke="context-stroke" fill="context-stroke"/>
  </marker>
</defs>
<g class="plotroot xscalable yscalable" id="img-ad65e412-1">
  <g font-size="3.88" font-family="'PT Sans','Helvetica Neue','Helvetica',sans-serif" fill="#564A55" stroke="#000000" stroke-opacity="0.000" id="img-ad65e412-2">
    <g transform="translate(81.78,89.99)">
      <g class="primitive">
        <text text-anchor="middle" dy="0.6em">x</text>
      </g>
    </g>
  </g>
  <g class="guide xlabels" font-size="2.82" font-family="'PT Sans Caption','Helvetica Neue','Helvetica',sans-serif" fill="#6C606B" id="img-ad65e412-3">
    <g transform="translate(18.15,83.31)">
      <g class="primitive">
        <text text-anchor="middle" dy="0.6em">16</text>
      </g>
    </g>
    <g transform="translate(43.6,83.31)">
      <g class="primitive">
        <text text-anchor="middle" dy="0.6em">18</text>
      </g>
    </g>
    <g transform="translate(69.05,83.31)">
      <g class="primitive">
        <text text-anchor="middle" dy="0.6em">20</text>
      </g>
    </g>
    <g transform="translate(94.5,83.31)">
      <g class="primitive">
        <text text-anchor="middle" dy="0.6em">22</text>
      </g>
    </g>
    <g transform="translate(119.95,83.31)">
      <g class="primitive">
        <text text-anchor="middle" dy="0.6em">24</text>
      </g>
    </g>
    <g transform="translate(145.4,83.31)">
      <g class="primitive">
        <text text-anchor="middle" dy="0.6em">26</text>
      </g>
    </g>
  </g>
  <g clip-path="url(#img-ad65e412-4)">
    <g id="img-ad65e412-5">
      <g pointer-events="visible" fill="#000000" fill-opacity="0.000" stroke="#000000" stroke-opacity="0.000" class="guide background" id="img-ad65e412-6">
        <g transform="translate(81.78,43.66)" id="img-ad65e412-7">
          <path d="M-65.62,-38.66 L 65.62 -38.66 65.62 38.66 -65.62 38.66 z" class="primitive"/>
        </g>
      </g>
      <g class="guide ygridlines xfixed" stroke-dasharray="0.5,0.5" stroke-width="0.2" stroke="#D0D0E0" id="img-ad65e412-8">
        <g transform="translate(81.78,80.31)" id="img-ad65e412-9">
          <path fill="none" d="M-65.62,0 L 65.62 0" class="primitive"/>
        </g>
        <g transform="translate(81.78,43.66)" id="img-ad65e412-10">
          <path fill="none" d="M-65.62,0 L 65.62 0" class="primitive"/>
        </g>
        <g transform="translate(81.78,7)" id="img-ad65e412-11">
          <path fill="none" d="M-65.62,0 L 65.62 0" class="primitive"/>
        </g>
      </g>
      <g class="guide xgridlines yfixed" stroke-dasharray="0.5,0.5" stroke-width="0.2" stroke="#D0D0E0" id="img-ad65e412-12">
        <g transform="translate(18.15,43.66)" id="img-ad65e412-13">
          <path fill="none" d="M0,-38.66 L 0 38.66" class="primitive"/>
        </g>
        <g transform="translate(43.6,43.66)" id="img-ad65e412-14">
          <path fill="none" d="M0,-38.66 L 0 38.66" class="primitive"/>
        </g>
        <g transform="translate(69.05,43.66)" id="img-ad65e412-15">
          <path fill="none" d="M0,-38.66 L 0 38.66" class="primitive"/>
        </g>
        <g transform="translate(94.5,43.66)" id="img-ad65e412-16">
          <path fill="none" d="M0,-38.66 L 0 38.66" class="primitive"/>
        </g>
        <g transform="translate(119.95,43.66)" id="img-ad65e412-17">
          <path fill="none" d="M0,-38.66 L 0 38.66" class="primitive"/>
        </g>
        <g transform="translate(145.4,43.66)" id="img-ad65e412-18">
          <path fill="none" d="M0,-38.66 L 0 38.66" class="primitive"/>
        </g>
      </g>
      <g class="plotpanel" id="img-ad65e412-19">
        <metadata>
          <boundingbox value="16.152500000000003mm 5.0mm 131.24749999999997mm 77.31499999999998mm"/>
          <unitbox value="15.842825988722765 10.272795471595172 10.314348022554471 -10.545590943190344"/>
        </metadata>
        <g stroke-width="0.3" fill="#000000" fill-opacity="0.000" class="geometry" id="img-ad65e412-20">
          <g class="color_LCHab{Float32}(70.0f0,60.0f0,240.0f0)" stroke-dasharray="none" stroke="#00BFFF" id="img-ad65e412-21">
            <g transform="translate(77.96,39.78)" id="img-ad65e412-22">
              <path fill="none" d="M-52.68,30.77 L -52.15 30.46 -51.62 30.15 -51.09 29.84 -50.56 29.53 -50.03 29.22 -49.5 28.9 -48.98 28.59 -48.45 28.28 -47.92 27.97 -47.39 27.66 -46.86 27.35 -46.33 27.04 -45.8 26.73 -45.27 26.42 -44.74 26.11 -44.21 25.8 -43.68 25.49 -43.15 25.18 -42.62 24.87 -42.09 24.56 -41.56 24.25 -41.03 23.94 -40.5 23.63 -39.97 23.32 -39.44 23.01 -38.92 22.71 -38.39 22.4 -37.86 22.09 -37.33 21.78 -36.8 21.47 -36.27 21.16 -35.74 20.85 -35.21 20.54 -34.68 20.23 -34.15 19.92 -33.62 19.61 -33.09 19.3 -32.56 18.99 -32.03 18.68 -31.5 18.37 -30.97 18.06 -30.44 17.75 -29.91 17.44 -29.39 17.13 -28.86 16.82 -28.33 16.51 -27.8 16.2 -27.27 15.89 -26.74 15.58 -26.21 15.27 -25.68 14.97 -25.15 14.66 -24.62 14.35 -24.09 14.04 -23.56 13.73 -23.03 13.42 -22.5 13.11 -21.97 12.8 -21.44 12.49 -20.91 12.18 -20.38 11.87 -19.85 11.56 -19.33 11.25 -18.8 10.94 -18.27 10.64 -17.74 10.33 -17.21 10.02 -16.68 9.71 -16.15 9.4 -15.62 9.09 -15.09 8.78 -14.56 8.47 -14.03 8.16 -13.5 7.85 -12.97 7.54 -12.44 7.24 -11.91 6.93 -11.38 6.62 -10.85 6.31 -10.32 6 -9.8 5.69 -9.27 5.38 -8.74 5.07 -8.21 4.76 -7.68 4.45 -7.15 4.15 -6.62 3.84 -6.09 3.53 -5.56 3.22 -5.03 2.91 -4.5 2.6 -3.97 2.29 -3.44 1.98 -2.91 1.68 -2.38 1.37 -1.85 1.06 -1.32 0.75 -0.79 0.44 -0.26 0.13 0.26 -0.18 0.79 -0.49 1.32 -0.79 1.85 -1.1 2.38 -1.41 2.91 -1.72 3.44 -2.03 3.97 -2.34 4.5 -2.65 5.03 -2.95 5.56 -3.26 6.09 -3.57 6.62 -3.88 7.15 -4.19 7.68 -4.5 8.21 -4.81 8.74 -5.11 9.27 -5.42 9.8 -5.73 10.32 -6.04 10.85 -6.35 11.38 -6.66 11.91 -6.96 12.44 -7.27 12.97 -7.58 13.5 -7.89 14.03 -8.2 14.56 -8.51 15.09 -8.81 15.62 -9.12 16.15 -9.43 16.68 -9.74 17.21 -10.05 17.74 -10.36 18.27 -10.66 18.8 -10.97 19.33 -11.28 19.85 -11.59 20.38 -11.9 20.91 -12.21 21.44 -12.51 21.97 -12.82 22.5 -13.13 23.03 -13.44 23.56 -13.75 24.09 -14.05 24.62 -14.36 25.15 -14.67 25.68 -14.98 26.21 -15.29 26.74 -15.59 27.27 -15.9 27.8 -16.21 28.33 -16.52 28.86 -16.83 29.39 -17.13 29.91 -17.44 30.44 -17.75 30.97 -18.06 31.5 -18.37 32.03 -18.67 32.56 -18.98 33.09 -19.29 33.62 -19.6 34.15 -19.91 34.68 -20.21 35.21 -20.52 35.74 -20.83 36.27 -21.14 36.8 -21.45 37.33 -21.75 37.86 -22.06 38.39 -22.37 38.92 -22.68 39.44 -22.98 39.97 -23.29 40.5 -23.6 41.03 -23.91 41.56 -24.22 42.09 -24.52 42.62 -24.83 43.15 -25.14 43.68 -25.45 44.21 -25.75 44.74 -26.06 45.27 -26.37 45.8 -26.68 46.33 -26.98 46.86 -27.29 47.39 -27.6 47.92 -27.91 48.45 -28.22 48.98 -28.52 49.5 -28.83 50.03 -29.14 50.56 -29.45 51.09 -29.75 51.62 -30.06 52.15 -30.37 52.68 -30.68" class="primitive"/>
            </g>
          </g>
        </g>
      </g>
    </g>
  </g>
  <g class="guide ylabels" font-size="2.82" font-family="'PT Sans Caption','Helvetica Neue','Helvetica',sans-serif" fill="#6C606B" id="img-ad65e412-23">
    <g transform="translate(15.15,80.31)" id="img-ad65e412-24">
      <g class="primitive">
        <text text-anchor="end" dy="0.35em">0</text>
      </g>
    </g>
    <g transform="translate(15.15,43.66)" id="img-ad65e412-25">
      <g class="primitive">
        <text text-anchor="end" dy="0.35em">5</text>
      </g>
    </g>
    <g transform="translate(15.15,7)" id="img-ad65e412-26">
      <g class="primitive">
        <text text-anchor="end" dy="0.35em">10</text>
      </g>
    </g>
  </g>
  <g font-size="3.88" font-family="'PT Sans','Helvetica Neue','Helvetica',sans-serif" fill="#564A55" stroke="#000000" stroke-opacity="0.000" id="img-ad65e412-27">
    <g transform="translate(8.81,43.66)" id="img-ad65e412-28">
      <g class="primitive">
        <text text-anchor="end" dy="0.35em">y</text>
      </g>
    </g>
  </g>
</g>
<defs>
  <clipPath id="img-ad65e412-4">
    <path d="M16.15,5 L 147.4 5 147.4 82.31 16.15 82.31" />
  </clipPath>
</defs>
</svg>
